# xmcd
#
# Track frame offsets:
#	150
#	10943
#	32230
#	46698
#	67326
#	79406
#	95548
#	112080
#	126779
#	147601
#
# Disc length: 2134 seconds
#
# Revision: 1
# Processed by: cddbd v1.5.2PL0 Copyright (c) Steve Scherf et al.
# Submitted via: audiograbber 1.83.01
#
DISCID=9208540a
DTITLE=Jade Maze - My favourite colour is blue
DYEAR=2000
DGENRE=
TTITLE0=Poverty
TTITLE1=I smell trouble
TTITLE2=The dark side
TTITLE3=My love will never die
TTITLE4=You weren't ready
TTITLE5=Move on
TTITLE6=Yes to the devil
TTITLE7=I'd rather go blind
TTITLE8=Tired of loving you
TTITLE9=Further on up the road
EXTD=
EXTT0=
EXTT1=
EXTT2=
EXTT3=
EXTT4=
EXTT5=
EXTT6=
EXTT7=
EXTT8=
EXTT9=
PLAYORDER=
